<?xml version="1.0" encoding="UTF-8" standalone="no"?>
<svg width="100%" height="100%" viewBox="0 0 246 246" version="1.1" xmlns="http://www.w3.org/2000/svg" xml:space="preserve" style="fill-rule:evenodd;clip-rule:evenodd;stroke-linejoin:round;stroke-miterlimit:2;"><g><g><path d="M78.014,39.529c0.224,4.037 0.449,13.906 -0.224,16.597c-11.214,0.449 -17.046,-0.224 -20.859,6.729c-1.346,2.691 -1.57,6.28 -1.57,9.644l0,28.933c-0.224,9.869 -4.037,16.373 -11.439,21.307l0,1.346c4.934,2.243 10.99,9.196 11.439,19.064l0,32.97c0.897,16.597 12.112,13.906 22.653,14.803c0.449,1.346 0,11.887 0,15.252c-6.953,0 -15.7,0.897 -21.307,-0.673c-10.766,-2.691 -19.289,-10.99 -20.186,-25.345l0,-31.625c0.224,-11.214 -6.056,-16.373 -15.252,-17.494c-0.673,-2.916 -0.449,-11.887 0,-15.252c6.729,-0.673 9.644,-2.243 12.336,-5.383c2.691,-2.467 2.916,-6.729 3.364,-10.99l0,-33.195c1.346,-14.13 9.869,-25.569 25.569,-26.69c4.486,-0.449 10.542,0 15.476,0Z" style="fill:#FFFFFF;fill-rule:nonzero;"/><path d="M167.834,39.669c5.383,0 12.112,-0.449 17.27,0.224c12.336,1.346 23.775,10.766 24.447,25.793l0,30.952c0.449,11.214 3.14,17.719 15.027,18.84c0.449,2.467 0.449,13.906 0,15.7c-4.261,0.673 -6.056,0.673 -8.523,2.691c-4.486,3.364 -6.28,6.953 -6.28,15.027l-0.224,30.727c-0.224,5.831 -1.346,11.214 -4.486,15.476c-4.261,5.607 -10.766,9.869 -19.289,10.766c-4.486,0.673 -12.784,0.224 -17.719,0.224c-1.346,-2.019 -0.224,-7.177 -0.673,-13.457l0.449,-2.019c9.869,-0.224 21.532,1.346 21.756,-14.803l0,-32.073c0.224,-5.159 2.691,-13.009 8.747,-17.494l2.916,-2.243l1.121,-0.449l-2.243,-1.794c-6.056,-4.261 -10.317,-11.214 -10.317,-21.083l0,-29.606c0,-13.457 -5.159,-14.803 -21.756,-15.027c-1.346,-2.243 -0.224,-11.439 -0.673,-15.476l0.449,-0.897Z" style="fill:#FFFFFF;fill-rule:nonzero;"/><path d="M73.206,79.891l26.242,0l12.112,36.783c3.14,8.972 9.196,29.382 10.766,34.54l1.121,0c1.57,-4.71 21.98,-67.062 22.877,-71.324l25.12,0l-8.299,23.326l-6.953,19.513l-7.402,20.186l-13.457,38.353l-26.466,0l-21.307,-59.885l-14.354,-41.493Z" style="fill:#FFFFFF;fill-rule:nonzero;"/></g></g></svg>
